<svg width="547" height="159" viewBox="0 0 547 159" fill="none" xmlns="http://www.w3.org/2000/svg">
<mask id="mask0_2_114" style="mask-type:alpha" maskUnits="userSpaceOnUse" x="-55" y="-13" width="872" height="386">
<path d="M-54.8335 -12.2074H380.934H598.818L707.76 107.866L672.113 111.869V174.407L702.632 226.439L710.637 258.959L724.645 292.48H741.656L779.179 281.973L807.696 258.959L816.702 179.911V275.97V372.029H-54.8335V-12.2074Z" fill="#C4C4C4"/>
</mask>
<g mask="url(#mask0_2_114)">
<path d="M86.2532 17.2106V39.8245H28.0174V75.6465H72.6448V97.8601H28.0174V156.896H0.000196578V17.2106H86.2532ZM118.328 32.8202C113.391 32.8202 109.255 31.2859 105.92 28.2174C102.718 25.0154 101.117 21.0797 101.117 16.4101C101.117 11.7406 102.718 7.87154 105.92 4.80299C109.255 1.60102 113.391 4.10332e-05 118.328 4.10332e-05C123.264 4.10332e-05 127.333 1.60102 130.535 4.80299C133.87 7.87154 135.538 11.7406 135.538 16.4101C135.538 21.0797 133.87 25.0154 130.535 28.2174C127.333 31.2859 123.264 32.8202 118.328 32.8202ZM132.136 46.0283V156.896H104.119V46.0283H132.136ZM190.436 69.0424V122.675C190.436 126.411 191.303 129.146 193.037 130.88C194.905 132.481 197.974 133.282 202.243 133.282H215.251V156.896H197.64C174.026 156.896 162.219 145.423 162.219 122.475V69.0424H149.01V46.0283H162.219V18.6115H190.436V46.0283H215.251V69.0424H190.436ZM261.419 134.683H307.447V156.896H233.401V17.2106H261.419V134.683ZM337.462 32.8202C332.526 32.8202 328.39 31.2859 325.055 28.2174C321.853 25.0154 320.252 21.0797 320.252 16.4101C320.252 11.7406 321.853 7.87154 325.055 4.80299C328.39 1.60102 332.526 4.10332e-05 337.462 4.10332e-05C342.398 4.10332e-05 346.468 1.60102 349.67 4.80299C353.005 7.87154 354.673 11.7406 354.673 16.4101C354.673 21.0797 353.005 25.0154 349.67 28.2174C346.468 31.2859 342.398 32.8202 337.462 32.8202ZM351.271 46.0283V156.896H323.253V46.0283H351.271ZM427.782 69.0424H408.37V156.896H379.952V69.0424H367.345V46.0283H379.952V40.4249C379.952 26.8165 383.821 16.8104 391.559 10.4064C399.298 4.0025 410.971 1.00066 426.581 1.40091V25.0154C419.777 24.882 415.041 26.016 412.372 28.4175C409.704 30.819 408.37 35.155 408.37 41.4255V46.0283H427.782V69.0424ZM547 99.0609C547 103.063 546.733 106.666 546.2 109.868H465.15C465.817 117.872 468.619 124.143 473.555 128.679C478.491 133.215 484.562 135.483 491.766 135.483C502.173 135.483 509.577 131.014 513.98 122.075H544.198C540.997 132.748 534.859 141.554 525.787 148.491C516.715 155.295 505.575 158.698 492.367 158.698C481.693 158.698 472.088 156.363 463.549 151.693C455.144 146.89 448.54 140.153 443.737 131.481C439.067 122.809 436.732 112.803 436.732 101.462C436.732 89.9886 439.067 79.9158 443.737 71.2438C448.406 62.5718 454.944 55.901 463.349 51.2315C471.754 46.562 481.427 44.2272 492.367 44.2272C502.906 44.2272 512.312 46.4953 520.584 51.0314C528.989 55.5675 535.46 62.0381 539.996 70.4433C544.665 78.7151 547 88.2542 547 99.0609ZM517.982 91.056C517.849 83.8515 515.247 78.1147 510.178 73.8454C505.108 69.4427 498.904 67.2413 491.566 67.2413C484.629 67.2413 478.758 69.376 473.955 73.6453C469.286 77.7811 466.417 83.5847 465.35 91.056H517.982Z" fill="white"/>
</g>
</svg>
