<svg width="16" height="15" viewBox="0 0 16 15" fill="none" xmlns="http://www.w3.org/2000/svg">
<path d="M13.7811 9.07033L10.884 7.83342L10.8729 7.82873C10.6846 7.75141 10.4789 7.72028 10.2747 7.7382C10.0705 7.75611 9.87427 7.82249 9.70395 7.93127C9.68008 7.94649 9.65708 7.96292 9.63505 7.98049L8.26246 9.09377C7.46266 8.68068 6.6364 7.90021 6.20204 7.14787L7.37468 5.82014C7.39353 5.79871 7.41099 5.77621 7.42697 5.75276C7.53819 5.59113 7.60572 5.40581 7.62354 5.21331C7.64136 5.02081 7.60892 4.8271 7.5291 4.64944C7.52721 4.64603 7.52556 4.64251 7.52418 4.63889L6.22604 1.87503C6.11948 1.64389 5.93762 1.45156 5.70737 1.32651C5.47712 1.20146 5.21071 1.15033 4.94758 1.18069C4.05449 1.29243 3.23464 1.70995 2.64115 2.35529C2.04767 3.00063 1.72113 3.82965 1.72253 4.68752C1.72253 9.46935 5.80706 13.3594 10.828 13.3594C11.7287 13.3607 12.5992 13.0497 13.2768 12.4845C13.9544 11.9193 14.3928 11.1385 14.5102 10.2879C14.542 10.0373 14.4883 9.78358 14.357 9.5643C14.2257 9.34501 14.0238 9.17181 13.7811 9.07033ZM10.828 11.9531C8.80542 11.9508 6.8664 11.1846 5.43624 9.82252C4.00607 8.46046 3.20153 6.61377 3.19909 4.68752C3.19768 4.20207 3.37073 3.73078 3.68948 3.35195C4.00823 2.97312 4.45349 2.70958 4.95127 2.6051L6.10914 5.06604L4.93035 6.40315C4.9113 6.42477 4.89363 6.44747 4.87744 6.47111C4.76126 6.64019 4.69295 6.835 4.67915 7.03664C4.66535 7.23828 4.70653 7.43989 4.79869 7.62189C5.37824 8.75158 6.57241 9.88127 7.77089 10.4344C7.96327 10.5213 8.17603 10.5591 8.38836 10.5442C8.60069 10.5293 8.80533 10.4622 8.98228 10.3494C9.00607 10.3341 9.02888 10.3175 9.05057 10.2996L10.4305 9.18224L13.0145 10.2844C12.9048 10.7585 12.6281 11.1825 12.2303 11.4861C11.8326 11.7897 11.3377 11.9545 10.828 11.9531Z" fill="#0AA7BD"/>
</svg>
