<svg width="17" height="16" viewBox="0 0 17 16" fill="none" xmlns="http://www.w3.org/2000/svg">
<path d="M1.41873 13.125C2.31848 11.621 3.72343 10.4492 5.40742 9.7981C4.56998 9.19993 3.9514 8.36599 3.63928 7.41439C3.32716 6.4628 3.33733 5.4418 3.66836 4.49601C3.99938 3.55023 4.63447 2.72762 5.48367 2.1447C6.33287 1.56177 7.35313 1.2481 8.39992 1.2481C9.4467 1.2481 10.467 1.56177 11.3162 2.1447C12.1654 2.72762 12.8004 3.55023 13.1315 4.49601C13.4625 5.4418 13.4727 6.4628 13.1606 7.41439C12.8484 8.36599 12.2298 9.19993 11.3924 9.7981C13.0764 10.4492 14.4814 11.621 15.3811 13.125C15.4369 13.2103 15.474 13.3055 15.4904 13.4049C15.5067 13.5042 15.5019 13.6056 15.4763 13.7032C15.4507 13.8007 15.4047 13.8923 15.3412 13.9726C15.2776 14.0529 15.1977 14.1202 15.1063 14.1705C15.0149 14.2208 14.9138 14.253 14.8091 14.2654C14.7043 14.2777 14.598 14.2699 14.4965 14.2423C14.3949 14.2148 14.3003 14.168 14.2181 14.1049C14.1359 14.0418 14.0679 13.9636 14.0181 13.875C12.8289 11.9175 10.7289 10.75 8.39992 10.75C6.07089 10.75 3.97088 11.9181 2.78176 13.875C2.6738 14.0403 2.50256 14.1592 2.30425 14.2064C2.10593 14.2537 1.89609 14.2257 1.71908 14.1283C1.54206 14.0309 1.41176 13.8718 1.35571 13.6845C1.29966 13.4973 1.32226 13.2966 1.41873 13.125ZM11.8124 5.99997C11.8124 5.35718 11.6123 4.72883 11.2373 4.19437C10.8623 3.65991 10.3294 3.24335 9.70582 2.99736C9.08227 2.75138 8.39613 2.68702 7.73417 2.81242C7.07221 2.93782 6.46416 3.24735 5.98691 3.70187C5.50967 4.1564 5.18466 4.73549 5.05299 5.36593C4.92131 5.99637 4.98889 6.64983 5.24718 7.24369C5.50546 7.83755 5.94285 8.34513 6.50403 8.70225C7.06522 9.05936 7.72499 9.24997 8.39992 9.24997C9.30465 9.24898 10.172 8.90625 10.8118 8.29697C11.4515 7.68769 11.8114 6.86162 11.8124 5.99997Z" fill="#0AA7BD"/>
</svg>
