<svg width="27" height="26" viewBox="0 0 27 26" fill="none" xmlns="http://www.w3.org/2000/svg">
<path d="M21.375 3.25H5.625C4.37625 3.25 3.375 4.225 3.375 5.41667V20.5833C3.375 21.775 4.37625 22.75 5.625 22.75H21.375C22.6125 22.75 23.625 21.775 23.625 20.5833V5.41667C23.625 4.225 22.6125 3.25 21.375 3.25ZM18 14.0833H14.625V17.3333C14.625 17.9292 14.1187 18.4167 13.5 18.4167C12.8813 18.4167 12.375 17.9292 12.375 17.3333V14.0833H9C8.38125 14.0833 7.875 13.5958 7.875 13C7.875 12.4042 8.38125 11.9167 9 11.9167H12.375V8.66667C12.375 8.07083 12.8813 7.58333 13.5 7.58333C14.1187 7.58333 14.625 8.07083 14.625 8.66667V11.9167H18C18.6187 11.9167 19.125 12.4042 19.125 13C19.125 13.5958 18.6187 14.0833 18 14.0833Z" fill="white"/>
</svg>
