<svg width="141" height="22" viewBox="0 0 141 22" fill="none" xmlns="http://www.w3.org/2000/svg">
<path d="M8.51721 4.29509H10.4195V1.13974C10.0913 1.09674 8.9626 1 7.64812 1C4.90543 1 3.0266 2.643 3.0266 5.66274V8.44186H0V11.9693H3.0266V20.845H6.73736V11.9701H9.64155L10.1026 8.44269H6.7365V6.01251C6.73736 4.99297 7.02561 4.29509 8.51721 4.29509Z" fill="white"/>
<path d="M75.56 4.11613C74.7009 4.475 73.7856 4.71288 72.8313 4.82838C73.813 4.27013 74.5623 3.39287 74.9146 2.3355C73.9993 2.85525 72.9886 3.22238 71.9116 3.42725C71.0425 2.54588 69.8037 2 68.4524 2C65.8305 2 63.7198 4.02675 63.7198 6.51137C63.7198 6.86888 63.7515 7.21263 63.8295 7.53988C59.8924 7.357 56.4086 5.55988 54.0683 2.82225C53.6597 3.49738 53.4201 4.27012 53.4201 5.102C53.4201 6.664 54.2646 8.04862 55.5236 8.85025C54.7627 8.8365 54.0163 8.62613 53.384 8.29475C53.384 8.3085 53.384 8.32638 53.384 8.34425C53.384 10.536 55.0255 12.3565 57.1781 12.7759C56.7927 12.8763 56.3725 12.9244 55.9365 12.9244C55.6333 12.9244 55.3272 12.9079 55.0399 12.8474C55.6535 14.6335 57.3947 15.9466 59.465 15.9893C57.8538 17.1896 55.808 17.9129 53.5933 17.9129C53.2049 17.9129 52.8324 17.8964 52.46 17.851C54.5577 19.1394 57.0439 19.875 59.7249 19.875C68.4394 19.875 73.2038 13 73.2038 7.04075C73.2038 6.84137 73.1965 6.64887 73.1864 6.45775C74.1263 5.8225 74.916 5.02913 75.56 4.11613Z" fill="white"/>
<path fill-rule="evenodd" clip-rule="evenodd" d="M124.778 0H133.441C137.427 0 140.66 3.07862 140.66 6.875V15.125C140.66 18.9214 137.427 22 133.441 22H124.778C120.792 22 117.56 18.9214 117.56 15.125V6.875C117.56 3.07862 120.792 0 124.778 0ZM133.441 19.9375C136.227 19.9375 138.494 17.7787 138.494 15.125V6.875C138.494 4.22125 136.227 2.0625 133.441 2.0625H124.778C121.992 2.0625 119.725 4.22125 119.725 6.875V15.125C119.725 17.7787 121.992 19.9375 124.778 19.9375H133.441Z" fill="white"/>
<path fill-rule="evenodd" clip-rule="evenodd" d="M123.334 11C123.334 7.96263 125.92 5.5 129.109 5.5C132.299 5.5 134.884 7.96263 134.884 11C134.884 14.0374 132.299 16.5 129.109 16.5C125.92 16.5 123.334 14.0374 123.334 11ZM125.5 11C125.5 12.8948 127.12 14.4375 129.109 14.4375C131.099 14.4375 132.719 12.8948 132.719 11C132.719 9.10388 131.099 7.5625 129.109 7.5625C127.12 7.5625 125.5 9.10388 125.5 11Z" fill="white"/>
<ellipse cx="135.318" cy="5.08761" rx="0.769519" ry="0.732875" fill="white"/>
</svg>
