<svg width="510" height="126" viewBox="0 0 510 126" fill="none" xmlns="http://www.w3.org/2000/svg">
<path fill-rule="evenodd" clip-rule="evenodd" d="M376.574 12.3818C379.918 12.4052 382.947 12.1697 383.304 11.8509C384.712 10.5978 383.517 9.56898 381.321 10.1428C380.043 10.4828 377.528 10.7183 375.729 10.6705C373.932 10.6222 372.02 10.978 371.478 11.4574C370.872 11.996 372.837 12.3504 376.574 12.3818Z" fill="#FFCD00"/>
<path fill-rule="evenodd" clip-rule="evenodd" d="M241.156 33.0241C241.239 33.4971 242.848 33.6106 244.732 33.2783C246.617 32.9461 248.095 32.2883 248.011 31.8153C247.928 31.3448 246.314 31.2322 244.43 31.5645C242.546 31.8968 241.073 32.5536 241.156 33.0241Z" fill="#FFCD00"/>
<path fill-rule="evenodd" clip-rule="evenodd" d="M328.318 27.9382C327.66 28.8779 328.843 29.9327 330.272 29.6806C330.955 29.5603 331.406 28.8837 331.281 28.1754C331.053 26.8829 329.163 26.7336 328.318 27.9382Z" fill="#FFCD00"/>
<path fill-rule="evenodd" clip-rule="evenodd" d="M418.383 4.02062C423.325 2.56827 425.503 1.19794 423.873 0.552537C423.438 0.383999 420.043 0.494831 416.331 0.80025C409.268 1.37921 408.352 2.06059 411.591 4.33337C412.978 5.30429 414.209 5.24181 418.383 4.02062Z" fill="#FFCD00"/>
<path fill-rule="evenodd" clip-rule="evenodd" d="M321.354 29.4828C321.729 29.9018 322.567 30.1537 323.219 30.0389C323.868 29.9244 324.572 29.4004 324.781 28.8784C324.995 28.337 324.193 28.0972 322.916 28.3224C321.637 28.548 320.968 29.0471 321.354 29.4828Z" fill="#FFCD00"/>
<path fill-rule="evenodd" clip-rule="evenodd" d="M261.632 27.5292C260.921 28.1077 259.239 28.423 257.713 28.263C255.608 28.0398 254.57 28.4599 252.839 30.2205C249.461 33.6467 251.491 33.9738 260.362 31.4341C264.725 30.1771 269.24 28.9838 270.393 28.7671C271.893 28.492 272.18 28.1695 271.402 27.6244C269.71 26.4354 263.046 26.3711 261.632 27.5292Z" fill="#FFCD00"/>
<path fill-rule="evenodd" clip-rule="evenodd" d="M356.806 12.6316C356.89 13.1046 357.922 13.3198 359.101 13.1119C360.277 12.9045 361.173 12.3493 361.09 11.8763C361.007 11.4058 359.975 11.1907 358.798 11.3981C357.62 11.6059 356.723 12.1611 356.806 12.6316Z" fill="#FFCD00"/>
<path fill-rule="evenodd" clip-rule="evenodd" d="M404.035 11.6362C407.459 11.3124 411.805 11.1697 413.697 11.3211C420.86 11.9025 430.616 12.0561 434.593 11.6507C436.868 11.4282 439.27 11.5243 439.934 11.8737C440.597 12.2179 441.858 12.6247 442.735 12.7766C443.61 12.9207 444.44 13.678 444.575 14.4458C444.757 15.4772 445.191 15.5978 446.201 14.9026C448.828 13.0827 452.905 13.0462 459.067 14.7823C462.47 15.7442 465.324 16.9016 465.404 17.3592C465.485 17.8167 466.127 18.0899 466.836 17.965C467.541 17.8406 468.018 17.1594 467.894 16.4511C467.608 14.8303 468.537 14.6559 470.937 15.8879C472 16.4307 472.357 16.9461 471.755 17.0683C471.168 17.1851 470.799 17.9058 470.933 18.6632C471.129 19.7748 470.579 20.0397 468.149 20.0151C463.665 19.9635 463.801 21.5999 468.468 23.8688C472.89 26.0157 476.332 25.7314 475.461 23.2888C474.699 21.1283 477.666 20.9597 481.05 22.967C484.515 25.0215 486.165 24.8852 485.758 22.5768C485.591 21.6332 485.071 20.9334 484.6 21.0164C484.127 21.0998 483.674 20.7799 483.589 20.3017C483.438 19.4461 483.711 19.494 489.206 21.1958C490.327 21.5418 492.428 21.9523 493.875 22.0997C496.062 22.3325 496.529 22.0955 496.645 20.6837C496.761 19.2265 497.105 19.0727 499.067 19.5769C500.891 20.0496 501.474 19.8909 501.922 18.791C502.731 16.8199 502.163 14.4012 500.83 14.1379C500.199 14.0092 499.367 12.5221 498.973 10.8191C498.014 6.66233 495.94 5.19683 493.77 7.15744C492.478 8.31532 491.922 8.42411 490.893 7.69927C489.86 6.98051 489.817 6.62835 490.66 5.87731C491.865 4.80396 490.751 3.14518 489.03 3.44875C488.391 3.56133 487.801 4.10242 487.719 4.64737C487.549 5.80206 478.593 4.84651 476.162 3.4094C475.328 2.92742 473.828 2.90136 472.827 3.35784C471.438 3.99446 471.07 3.87018 471.272 2.82436C471.592 1.17932 466.543 0.766239 461.562 2.02305C459.8 2.47501 457.826 2.55655 457.18 2.21737C456.531 1.87865 453.985 1.43734 451.522 1.23993C449.056 1.04298 446.614 0.61536 446.096 0.293538C445.578 -0.0308696 444.029 -0.0961651 442.651 0.146781C440.523 0.52191 440.34 0.751489 441.44 1.68496C442.151 2.2872 443.448 2.65566 444.321 2.5016C445.198 2.34708 446.708 3.06956 447.686 4.10991C449.731 6.28687 453.239 6.70232 462.455 5.86365C466.021 5.54148 469.197 5.52246 469.517 5.82586C470.664 6.93496 475.319 7.63613 478.165 7.13429C479.765 6.85214 481.386 6.97416 481.771 7.40469C482.153 7.83567 483.097 7.97052 483.862 7.70225C484.781 7.37773 485.475 7.88174 485.899 9.18492C486.928 12.3433 485.643 13.0523 481.174 11.7879C478.727 11.0945 474.778 10.8847 471.415 11.2671C463.48 12.1758 456.347 11.8422 454.03 10.4597C452.776 9.71068 450.083 9.49515 446.635 9.86583C443.023 10.2523 440.771 10.0469 439.902 9.25667C439.131 8.56091 436.797 8.21298 434.239 8.41608C431.84 8.61251 425.528 8.86723 420.201 8.97764C414.878 9.09794 409.467 9.39902 408.175 9.64547C406.59 9.95164 405.75 9.66262 405.59 8.75528C405.403 7.69284 404.775 7.62493 402.659 8.42719C399.337 9.69259 396.913 10.5918 395.819 10.9659C393.53 11.7559 398.542 12.1676 404.035 11.6362Z" fill="#FFCD00"/>
<path fill-rule="evenodd" clip-rule="evenodd" d="M441.452 8.01051C442.083 8.14183 443.047 7.97181 443.595 7.63265C444.142 7.28832 443.625 7.17968 442.446 7.38753C441.27 7.59492 440.823 7.87358 441.452 8.01051Z" fill="#FFCD00"/>
<path fill-rule="evenodd" clip-rule="evenodd" d="M345.011 5.43045C350.366 3.70536 350.397 1.40491 345.053 2.32593C342.326 2.79601 341.693 2.68112 342.541 1.86531C343.355 1.08476 342.231 1.07503 338.559 1.8237C335.393 2.47269 332.958 3.46436 332.175 4.43148C331.473 5.28821 330.953 6.27012 331.013 6.61393C331.195 7.64535 340.596 6.84593 345.011 5.43045Z" fill="#FFCD00"/>
<path fill-rule="evenodd" clip-rule="evenodd" d="M356.059 4.20457C359.769 5.11225 362.314 4.95934 364.428 3.68844C366.657 2.34914 364.577 1.54311 360.664 2.2332C358.57 2.60241 356.791 2.52157 356.707 2.04593C356.625 1.57804 355.59 1.36334 354.414 1.57074C351.312 2.1177 351.99 3.20013 356.059 4.20457Z" fill="#FFCD00"/>
<path fill-rule="evenodd" clip-rule="evenodd" d="M326.495 6.05142C326.077 6.42907 325.766 6.90496 325.803 7.11176C325.84 7.32115 326.252 7.42171 326.722 7.33876C327.195 7.25534 327.508 6.779 327.421 6.28009C327.333 5.78377 326.917 5.6759 326.495 6.05142Z" fill="#FFCD00"/>
<path fill-rule="evenodd" clip-rule="evenodd" d="M402.833 3.68431C404.551 2.33642 404.864 0.103673 403.168 1.29297C402.627 1.67091 401.526 2.34755 400.725 2.79783C399.794 3.31925 399.615 3.86252 400.232 4.29217C400.849 4.72181 401.789 4.50541 402.833 3.68431Z" fill="#FFCD00"/>
<path fill-rule="evenodd" clip-rule="evenodd" d="M366.173 65.7483C366.255 66.2162 367.094 66.4707 368.038 66.3043C368.979 66.1384 369.683 65.6118 369.6 65.1439C369.517 64.6734 368.676 64.4219 367.735 64.5878C366.792 64.7542 366.09 65.2778 366.173 65.7483Z" fill="#FFCD00"/>
<path fill-rule="evenodd" clip-rule="evenodd" d="M339.225 65.5026C338.548 65.9099 338.064 66.6429 338.149 67.1263C338.342 68.2197 339.231 68.0789 340.703 66.7372C342.091 65.4796 340.912 64.4908 339.225 65.5026Z" fill="#FFCD00"/>
<mask id="mask0_2_209" style="mask-type:luminance" maskUnits="userSpaceOnUse" x="-6" y="-53" width="517" height="201">
<path fill-rule="evenodd" clip-rule="evenodd" d="M-5.64783 34.9766L490.183 -52.4517L510.07 60.3311L14.2388 147.759L-5.64783 34.9766Z" fill="white"/>
</mask>
<g mask="url(#mask0_2_209)">
<path fill-rule="evenodd" clip-rule="evenodd" d="M251.706 80.6304C249.889 80.9508 248.932 81.4794 249.337 81.933C249.712 82.352 251.153 82.4977 252.539 82.2534C253.924 82.0091 254.991 81.4212 254.908 80.9507C254.825 80.4803 253.384 80.3345 251.706 80.6304Z" fill="#FFCD00"/>
<path fill-rule="evenodd" clip-rule="evenodd" d="M442.077 49.4328C441.5 49.7903 440.755 49.8897 440.421 49.6581C440.086 49.4187 440.557 49.1303 441.465 49.0048C442.474 48.8749 442.711 49.041 442.077 49.4328ZM433.345 50.3724C432.875 50.4554 432.183 50.1775 431.811 49.758C431.436 49.3391 431.512 48.9258 431.983 48.8428C432.456 48.7594 433.15 49.0369 433.525 49.4558C433.897 49.8753 433.818 50.289 433.345 50.3724ZM397.45 51.3979C395.312 51.7748 393.942 50.6544 395.183 49.548C395.654 49.1344 396.769 49.3031 397.663 49.929C399.168 50.9856 399.151 51.098 397.45 51.3979ZM383.388 34.3825C381.072 34.8522 380.358 34.5624 381.487 33.6197C381.802 33.3535 382.887 33.3088 383.898 33.5224C385.5 33.8582 385.434 33.9684 383.388 34.3825ZM376.151 35.9199C372.632 36.8682 367.132 36.8892 369.311 35.9453C371.195 35.1279 379.963 33.7739 380.052 34.2805C380.109 34.5903 378.352 35.3266 376.151 35.9199ZM326.847 69.1189C324.17 69.6096 321.674 69.6633 321.299 69.2443C320.924 68.8253 320.927 68.4037 321.302 68.3083C321.676 68.2102 323.364 67.7421 325.042 67.2569C326.846 66.7389 328.846 66.7594 329.91 67.3074C331.536 68.1376 331.225 68.323 326.847 69.1189ZM292.783 63.7469C292.093 64.7321 285.631 65.9834 266.035 68.9297C263.903 69.2496 261.316 69.21 260.279 68.8464C259.244 68.4747 255.107 68.6844 251.084 69.303C241.424 70.7932 239.644 70.9471 238.328 70.3928C237.721 70.14 236.652 70.2752 235.952 70.6892C235.117 71.1963 234.6 70.9862 234.439 70.0763C234.306 69.3189 233.618 68.8032 232.912 68.9276C232.206 69.0521 231.548 68.7203 231.455 68.1904C231.336 67.5183 232.573 67.1882 235.463 67.1132C239.486 67.0116 247.468 65.6334 256.974 63.4054C259.844 62.7342 262.578 62.6546 264.411 63.1975C266.006 63.6707 270.443 63.6825 274.267 63.2216C278.094 62.7653 281.734 62.6725 282.365 63.0118C283.518 63.6401 286.348 63.6368 291.004 63.0023C292.836 62.7487 293.334 62.9593 292.783 63.7469ZM210.4 36.3333C208.81 37.9915 204.593 39.0151 203.662 37.9665C203.329 37.5933 200.284 37.7332 196.894 38.2803C193.503 38.8222 190.526 39.1233 190.276 38.9462C189.765 38.5884 194.019 36.4896 195.381 36.4281C195.862 36.4046 199.758 36.04 204.042 35.6179C210.977 34.9387 211.665 35.0147 210.4 36.3333ZM148.528 47.4722C145.106 48.0515 142.248 48.1798 142.172 47.7481C142.096 47.3215 142.921 46.8136 144.004 46.6227C145.087 46.4317 146.284 45.8288 146.664 45.2901C147.677 43.8427 162.054 40.2895 162.257 41.4372C162.54 43.0425 154.953 46.3766 148.528 47.4722ZM139.01 44.8435C138.068 45.6999 138.108 46.1539 139.237 47.4181C140.933 49.3127 140.021 49.7774 129.918 52.14C126.064 53.038 122.889 53.6219 122.856 53.4332C122.751 52.8412 127.79 49.7165 131.837 47.8622C133.982 46.8762 135.883 45.7014 136.062 45.2539C136.243 44.7983 137.235 44.2875 138.271 44.1129C139.79 43.8557 139.93 43.999 139.01 44.8435ZM203.601 15.8231C204.718 15.6473 204.71 15.8273 203.556 16.7958C202.784 17.4491 201.961 17.8473 201.724 17.6813C201.012 17.1804 202.152 16.0546 203.601 15.8231ZM207.318 14.2584C208.122 14.1166 208.355 13.2626 207.987 11.7975C207.529 9.96985 207.879 9.3378 209.868 8.37662C213.063 6.84572 214.837 7.21789 214.659 9.39759C214.557 10.6444 215.023 11.1139 216.33 11.0753C217.33 11.0482 218.366 11.4334 218.632 11.9302C219.272 13.1234 216.425 14.393 210.885 15.3832C208.41 15.8302 206.322 15.8066 206.238 15.3336C206.155 14.8631 206.638 14.3783 207.318 14.2584ZM233.866 14.2178C235.749 13.8937 236.452 13.9536 235.423 14.3456C234.394 14.7376 232.85 15.002 231.992 14.9319C231.135 14.8618 231.98 14.5423 233.866 14.2178ZM244.536 13.3759L250.475 13.243L246.13 14.8114C242.922 15.9661 241.395 16.1501 240.296 15.5256C237.588 13.9827 238.527 13.5027 244.536 13.3759ZM255.316 12.0506C257.653 11.5984 260.504 10.3202 262.094 9.01361C265.148 6.51865 267.732 5.75386 268.859 7.01852C269.308 7.5231 270.717 7.42918 272.404 6.79579C275.241 5.72784 276.099 6.28296 274.698 8.28641C274.147 9.07398 274.239 9.50295 275.027 9.81705C275.687 10.0845 276.185 9.50626 276.278 8.37041C276.401 6.86401 277.097 6.3681 279.757 5.89908C283.475 5.24363 284.269 6.27361 281.628 8.32798C280.666 9.07064 279.712 10.073 279.505 10.5466C279.3 11.0306 277.622 11.6704 275.78 11.9738C273.939 12.2772 268.861 13.1353 264.5 13.8775C260.137 14.6175 256.507 14.8898 256.434 14.4762C256.361 14.0626 255.172 13.5205 253.797 13.2753C251.48 12.8655 251.596 12.7704 255.316 12.0506ZM285.247 5.52843C287.285 4.30269 292.486 3.52154 292.645 4.41854C292.718 4.83731 291.485 5.56397 289.903 6.04014L289.908 6.03923C288.331 6.5119 286.318 6.78152 285.442 6.63482C283.919 6.38888 283.91 6.33459 285.247 5.52843ZM296.93 9.90261C299.839 8.44084 300.904 8.31174 304.452 8.9974C310.474 10.1531 310.561 11.068 304.75 12.0927C301.948 12.5868 298.283 12.676 296.601 12.2982L293.541 11.6036L296.93 9.90261ZM509.074 59.2915C508.357 59.1726 506.77 58.3171 505.544 57.3844C504.32 56.4594 502.781 55.7687 502.124 55.8525C501.465 55.942 499.028 55.3935 496.709 54.6376C494.387 53.8796 491.344 53.0062 489.946 52.6957C488.543 52.386 487.421 51.6508 487.448 51.0624C487.476 50.4765 485.807 48.9636 483.738 47.7052C479.367 45.0482 479.67 43.049 484.198 44.6762C486.384 45.4635 487.486 45.4424 488.417 44.5986C490.312 42.8892 489.151 42.049 485.348 42.373C483.474 42.5356 481.305 42.2996 480.529 41.8555C478.486 40.6858 477.007 40.7333 468.918 42.1863C464.927 42.906 461.213 43.2624 460.666 42.9749C460.117 42.6879 457.155 42.8478 454.082 43.331C450.888 43.8275 446.972 43.8224 444.944 43.3136C441.707 42.5012 441.508 42.2964 442.713 41.0443C444.891 38.776 442.959 38.5995 438.256 40.6469C431.747 43.4711 425.039 42.8734 424.264 39.3877C424.19 39.041 428.06 38.1615 432.867 37.431C438.838 36.5274 441.659 35.7742 441.768 35.062C441.856 34.4894 441.436 34.1636 440.836 34.3255C437.277 35.3208 427.412 35.1704 426.305 34.1076C425.228 33.0742 424.882 33.1085 423.831 34.3465C422.384 36.0544 408.973 39.0375 406.022 38.3104C404.426 37.9202 404.586 37.7987 406.927 37.6391C408.486 37.5321 409.706 37.1197 409.638 36.7346C409.57 36.3468 411.088 34.9223 413.009 33.5682C417.245 30.5822 418.693 28.4692 416.759 28.0959C416.033 27.9547 414.453 28.4252 413.252 29.146C410.266 30.9226 404.584 31.8313 403.935 30.6342C403.588 29.9919 401.289 30.016 397.256 30.7086C393.871 31.2867 391.057 31.5137 391.004 31.2139C390.858 30.432 386.078 30.4859 376 31.3754C371.178 31.7991 366.62 31.7953 365.873 31.3699C365.125 30.9393 362.333 30.7493 359.674 30.9382C357.016 31.1298 354.974 30.9487 355.141 30.5328C355.707 29.103 353.202 28.8943 346.347 29.7885C342.567 30.2845 339.131 30.5519 338.711 30.3806C338.288 30.2154 332.572 30.7809 325.999 31.644C311.1 33.5993 307.076 33.6772 306.785 32.028C306.621 31.0974 307.627 30.5709 310.609 30.029C315.864 29.0678 317.957 26.6224 312.967 27.2678C300.782 28.8485 299.548 29.138 300.208 30.2319C300.699 31.0515 300.046 31.4465 297.662 31.7895C294.473 32.2479 288.281 32.0842 289.977 31.5854C290.466 31.4432 291.513 30.6216 292.305 29.7649C293.608 28.3544 292.967 28.3475 285.617 29.6835C281.144 30.5014 276.878 31.1098 276.137 31.0378C270.228 30.4778 268.006 30.7844 267.255 32.2682C266.576 33.6033 265.401 33.8931 258.621 34.3822C254.303 34.7011 248.389 34.9711 245.476 34.9915C242.566 35.0063 236.122 35.6627 231.158 36.4447C222.308 37.8427 218.542 37.5712 215.315 35.3121C213.394 33.969 214.632 33.3243 220.823 32.4433C226.575 31.6289 231.197 29.3505 231.629 27.1154C231.978 25.3268 228.093 26.0891 226.694 28.0869C225.839 29.3145 224.417 29.7145 219.696 30.0726C216.439 30.3189 211.852 30.9066 209.51 31.3834C205.786 32.1334 205.408 32.0614 206.541 30.8382C207.254 30.0594 207.802 29.2244 207.759 28.9762C207.715 28.7307 204.448 29.3068 200.495 30.2571C193.696 31.893 193.204 31.8972 191.223 30.2474C189.34 28.6869 189.044 28.6698 188.296 30.0651C187.648 31.2856 186.067 31.8282 181.01 32.5653C171.622 33.9247 167.727 33.7239 167.876 31.8772C167.975 30.6684 167.398 30.4982 164.92 31.0017C163.229 31.3426 161.5 31.9168 161.081 32.2785C160.66 32.6406 159.147 33.4165 157.716 33.9965C154.841 35.162 152.815 34.0745 155.537 32.8242C157.833 31.7691 156.617 30.6214 153.119 30.5398C151.385 30.5017 150.536 30.1157 150.944 29.5534C151.316 29.0321 153.228 28.6469 155.319 28.6674C157.665 28.6881 159.304 28.3085 159.775 27.6365C160.299 26.891 161.402 26.7206 163.479 27.0739C166.858 27.6429 181.597 25.2679 190.319 22.7465C196.056 21.0899 199.838 21.092 201.585 22.759C202.095 23.2475 202.588 23.0193 202.964 22.132C203.474 20.912 205.05 20.6607 215.509 20.0878C227.646 19.4298 229.49 19.595 227.705 21.1865C226.983 21.8337 227.284 22.1243 228.802 22.2512C229.951 22.3444 230.956 22.0234 231.034 21.5324C231.11 21.0393 231.554 20.793 232.025 20.9819C233.896 21.7235 251.211 18.9635 252.24 17.7507C253.049 16.795 253.317 16.8304 253.51 17.9291C253.645 18.6942 254.089 19.261 254.5 19.1885C254.909 19.1165 258.743 19.0508 263.018 19.046C267.294 19.0357 273.753 18.4378 277.374 17.7194C280.996 17.0061 284.326 16.5601 284.774 16.729C285.226 16.9 292.471 16.7258 300.882 16.3409C312.444 15.8082 316.714 15.3111 318.411 14.3082C320.066 13.3234 320.701 13.2381 320.83 13.9696C321.255 16.3336 340.805 15.4665 342.527 13.0065C343.251 11.9726 341.218 10.9637 339.14 11.3302C337.907 11.5476 335.649 11.5753 334.127 11.3932C325.123 10.3074 322.741 10.2796 317.284 11.2259C311.845 12.1689 311.196 12.1021 310.684 10.5451C309.796 7.83644 313.465 5.7103 317.146 6.80166C319.728 7.56716 320.185 7.48131 321.865 5.9029C323.027 4.81054 324.666 4.17503 326.245 4.21114C327.629 4.24432 328.918 3.87835 329.111 3.39925C329.612 2.14608 326.792 1.46523 321.741 1.6175C319.324 1.69197 316.99 1.6103 316.556 1.44175C314.925 0.796356 307.737 2.06654 305.904 3.32789C304.333 4.40727 303.801 4.40234 302.917 3.31882C302.157 2.39208 301.247 2.26468 299.836 2.8946C298.613 3.44335 297.767 3.42195 297.665 2.84032C297.573 2.32074 296.226 2.11588 294.669 2.39028C293.116 2.66421 291.403 2.57974 290.865 2.20546C290.327 1.82858 285.233 2.12971 279.543 2.87186C273.856 3.61872 266.82 4.2544 263.912 4.28471C256.46 4.36457 251.9 5.30455 250.222 7.10907C248.044 9.44951 244.081 9.91912 243.171 7.93649C242.425 6.31699 240.424 6.01944 239.854 7.44717C239.692 7.85694 238.459 8.33285 237.118 8.50814C235.776 8.68342 233.223 9.02154 231.445 9.2579C229.279 9.55182 228.137 9.28936 227.993 8.4725C227.822 7.50053 226.764 7.51651 222.926 8.54767L218.078 9.85027L219.835 7.82924C221.656 5.72777 220.999 3.59129 218.922 4.84242C218.272 5.23433 217.069 5.17182 216.254 4.7052C215.44 4.24633 214.591 4.11363 214.376 4.42333C214.159 4.7335 212.702 4.69452 211.139 4.34366C209.227 3.91064 207.496 4.08785 205.837 4.89747C204.174 5.71317 203.121 5.81885 202.599 5.23382C202.071 4.64195 200.832 4.78045 198.659 5.68336C196.918 6.40614 190.966 7.82354 185.436 8.82786C175.525 10.6367 175.373 10.6342 175.034 8.711C174.633 6.43619 172.467 6.45824 171.668 8.74474C170.978 10.7268 168.77 9.91943 168.947 7.74794C169.1 5.86323 167.904 5.68759 159.609 6.38255C152.662 6.96259 133.18 10.3018 127.455 11.8896C125.141 12.5375 119.824 13.9442 115.643 15.0226C111.096 16.1921 107.562 17.5669 106.859 18.4345C106.078 19.3985 102.738 20.5446 96.8985 21.8487C92.0692 22.9241 87.8042 24.2519 87.4145 24.8084C87.0317 25.3583 85.2504 26.0642 83.4616 26.3796C81.1377 26.7894 80.2701 27.3262 80.4319 28.2438C80.6598 29.5364 79.8422 30.0084 77.0265 30.2143C76.1869 30.2744 75.5851 30.807 75.6895 31.399C75.798 32.0142 75.2694 31.8888 74.4542 31.105C73.0943 29.8016 72.7206 29.8594 66.0706 32.3994C62.2396 33.8611 58.5187 35.085 57.7979 35.1241C55.9518 35.2204 50.7151 37.3565 45.0952 40.3119C42.4649 41.6899 39.2959 43.0056 38.0551 43.2244C36.8143 43.4432 35.4168 44.1641 34.9531 44.8295C34.4842 45.4959 34.0491 45.7193 33.9807 45.3315C33.9128 44.9463 33.2992 45.2758 32.614 46.0603C31.7699 47.0327 31.5178 47.1145 31.8257 46.3059C32.1446 45.4847 31.6163 45.2393 30.0885 45.5087C28.7779 45.7398 27.9817 46.3786 28.1079 47.0947C28.4475 49.0205 24.1661 50.9962 21.9836 49.9257C19.1643 48.5384 17.8764 49.1706 18.3268 51.7246L18.7329 54.0279L16.655 52.4619C13.9382 50.4168 12.3487 50.7744 11.0839 53.7294C10.5146 55.0505 9.17461 56.5209 8.10498 57C5.88148 57.9945 5.86893 59.6465 8.07049 61.1881C8.90154 61.7745 9.6822 62.831 9.80664 63.5367C9.93153 64.245 10.8801 64.9386 11.9094 65.077C12.9442 65.217 13.6467 65.5276 13.4751 65.7791C13.068 66.3573 8.32417 65.1361 8.19791 64.42C8.10265 63.8798 2.71757 65.1438 0.773998 66.1689C-0.387642 66.7762 -0.19789 69.0616 1.05437 69.5578C1.51918 69.745 2.35137 70.9123 2.9094 72.1573C3.46134 73.398 5.01811 75.4397 6.36804 76.6863C7.71797 77.9329 9.11631 79.832 9.4738 80.907C10.1053 82.8107 11.3106 83.5391 14.5099 83.9372C15.721 84.0941 16.2542 85.0769 16.8011 88.1789C17.7036 93.2972 21.7774 102.585 23.8506 104.245C24.7198 104.942 26.5552 105.314 27.9253 105.072C30.8619 104.555 33.9724 105.416 34.218 106.809C34.3133 107.35 33.7412 108.791 32.9426 110.006L31.4923 112.226L34.1072 115.372C35.5511 117.105 37.3074 118.435 38.0194 118.331C40.2499 117.996 42.973 119.88 42.6545 121.535C42.2564 123.586 44.258 125.157 46.7112 124.725C47.8047 124.532 48.9861 124.702 49.3441 125.1C50.0455 125.888 54.7662 124.651 58.653 122.659C59.9931 121.975 63.2633 120.825 65.9252 120.095C70.8296 118.75 73.5933 116.829 76.6603 112.637C77.5968 111.357 78.7894 110.23 79.3116 110.138C79.8385 110.043 81.3141 109.145 82.5955 108.144C84.0238 107.023 87.7166 105.7 92.1498 104.721C96.126 103.842 102.197 102.219 105.647 101.121C109.097 100.022 118.321 97.3745 126.143 95.2383C139.441 91.6089 140.486 91.4325 142.233 92.5265C143.933 93.5967 145.192 93.4201 156.44 90.5332C163.225 88.7878 169.16 86.9416 169.624 86.428C171.114 84.7793 174.439 83.6999 175.743 84.4428C176.474 84.8576 178.327 84.6935 180.136 84.0521C181.857 83.4421 185.853 82.1138 189.012 81.1089C192.169 80.0992 194.917 79.0416 195.117 78.7558C195.317 78.4699 196.396 79.0553 197.514 80.0577C199.785 82.088 203.533 81.891 206.213 79.6006C207.509 78.4871 207.951 78.4092 208.415 79.2123C208.731 79.7617 209.537 80.1179 210.204 80.0003C210.871 79.8827 211.235 79.32 211.013 78.7542C210.713 77.9755 212.558 77.4157 218.346 76.5043C225.877 75.3202 228.292 75.137 239.262 74.89C253.979 74.5658 257.4 74.2239 259.351 72.8829C260.912 71.8027 261.515 71.747 262.269 72.5923C263.064 73.4863 263.531 73.4146 265.118 72.1646C266.193 71.3246 267.874 70.791 268.997 70.9449C270.817 71.1837 270.872 71.3127 269.705 72.5285C268.606 73.6738 269.154 73.8758 273.655 73.9751C276.524 74.0423 284.593 73.8694 291.59 73.5979C298.589 73.3234 306.882 73.0419 310.029 72.9774C313.175 72.9051 321.443 72.4681 328.407 71.997C335.368 71.5239 341.666 71.2343 342.396 71.3535C343.131 71.4666 346.701 71.4313 350.331 71.2631C353.963 71.1026 359.893 70.8432 363.51 70.6932C367.125 70.5462 373.236 70.239 377.078 70.0091C383.641 69.617 389.483 69.4931 399.963 69.535C402.393 69.5489 407.307 69.2395 410.881 68.8439C419.89 67.8631 415.719 67.2765 401.373 67.5112C395.076 67.6113 384.169 67.7434 377.132 67.8034C365.993 67.8937 338.815 68.8026 336.853 69.1485C336.47 69.216 335.554 68.3913 334.816 67.3167C333.669 65.6479 333.696 65.1846 335.011 64.1586C335.855 63.4899 337.69 62.6653 339.084 62.3156C340.746 61.9025 341.41 61.3323 341.01 60.662C340.221 59.351 349.471 58.2505 352.624 59.2803C354.061 59.7519 359.351 59.187 368.596 57.5756C376.195 56.2463 383.176 55.4044 384.11 55.6956C385.044 55.9868 387.64 56.0647 389.881 55.8615C395.18 55.3962 403.663 55.393 412.57 55.8588C416.496 56.0675 421.537 56.0849 423.775 55.9008C426.011 55.7171 428.249 55.7276 428.752 55.9348C429.256 56.1311 433.571 56.2071 438.343 56.0933C448.383 55.8636 453.566 55.9759 458.615 56.5223C462.624 56.9616 468.567 57.1583 473.345 57.0116C475.07 56.9579 477.398 57.5095 478.514 58.2297C479.795 59.0674 481.776 59.331 483.876 58.9501C488.927 58.0435 493.049 58.0631 497.076 58.9976C502.888 60.3555 509.434 60.9711 509.924 60.213C510.173 59.8253 509.791 59.4155 509.074 59.2915Z" fill="#FFCD00"/>
</g>
<path fill-rule="evenodd" clip-rule="evenodd" d="M426.72 68.4872C425.937 68.1722 423.707 67.9363 421.769 67.9661C419.45 67.994 418.736 68.2078 419.67 68.5788C420.453 68.8938 422.681 69.1327 424.622 69.1024C426.94 69.072 427.657 68.8577 426.72 68.4872Z" fill="#FFCD00"/>
<path fill-rule="evenodd" clip-rule="evenodd" d="M484.034 36.6531C480.991 37.6747 480.585 38.0474 481.693 38.7983C482.434 39.2967 484.781 39.5306 486.915 39.3142C489.941 38.9992 490.798 38.6028 490.828 37.4727C490.88 35.4858 488.406 35.1919 484.034 36.6531Z" fill="#FFCD00"/>
<path fill-rule="evenodd" clip-rule="evenodd" d="M456.614 70.7034C454.742 70.8336 454.01 70.9785 454.992 71.0293C455.971 71.0805 457.205 71.4094 457.728 71.7597C458.253 72.1095 459.662 72.221 460.86 71.9884C464.126 71.3725 460.918 70.4001 456.614 70.7034Z" fill="#FFCD00"/>
<path fill-rule="evenodd" clip-rule="evenodd" d="M498.775 49.966C499.112 50.1997 499.852 50.0987 500.429 49.7438C501.065 49.349 500.825 49.1782 499.821 49.3179C498.912 49.4382 498.44 49.7292 498.775 49.966Z" fill="#FFCD00"/>
<path fill-rule="evenodd" clip-rule="evenodd" d="M474.165 71.1828C470.807 71.3537 470.577 71.4715 472.152 72.284C473.124 72.7789 475.255 72.9708 476.884 72.697C480.894 72.0272 478.947 70.9446 474.165 71.1828Z" fill="#FFCD00"/>
<path fill-rule="evenodd" clip-rule="evenodd" d="M483.33 64.524C482.916 64.5969 482.713 65.4244 482.879 66.3679C483.17 68.0146 484.964 68.3939 485.931 67.016C486.466 66.2553 484.452 64.3262 483.33 64.524Z" fill="#FFCD00"/>
<path fill-rule="evenodd" clip-rule="evenodd" d="M465.922 63.1795C464.772 63.3824 463.897 63.9257 463.978 64.3858C464.146 65.3345 468.475 65.8506 469.076 64.9957C469.846 63.8923 467.975 62.8176 465.922 63.1795Z" fill="#FFCD00"/>
<path fill-rule="evenodd" clip-rule="evenodd" d="M442.349 69.1934C440.133 69.1711 438.372 69.447 438.435 69.8089C438.598 70.7291 440.409 70.9775 445.335 70.7539C450.761 70.5114 448.36 69.2583 442.349 69.1934Z" fill="#FFCD00"/>
<path fill-rule="evenodd" clip-rule="evenodd" d="M436.584 69.3148C435.805 69.0416 434.254 68.694 433.138 68.563C432.02 68.4216 431.171 68.6807 431.249 69.1253C431.397 69.9629 434.439 70.4845 436.714 70.0515C437.852 69.8401 437.837 69.7548 436.584 69.3148Z" fill="#FFCD00"/>
<path fill-rule="evenodd" clip-rule="evenodd" d="M503.938 45.4173C502.981 46.2739 504.22 48.2089 505.942 48.5423C507.486 48.8485 508.788 47.9818 508.58 46.8005C508.388 45.7096 504.802 44.6467 503.938 45.4173Z" fill="#FFCD00"/>
</svg>
