<svg width="21" height="20" viewBox="0 0 21 20" fill="none" xmlns="http://www.w3.org/2000/svg">
<path d="M17.3729 9.99986C17.1412 9.99986 16.9348 9.91986 16.7535 9.75986C16.5723 9.59986 16.4677 9.40208 16.4399 9.16652C16.2517 7.87485 15.6833 6.77401 14.7348 5.864C13.7862 4.954 12.6387 4.40899 11.2923 4.22899C11.0462 4.20122 10.8397 4.10399 10.673 3.93732C10.5062 3.77066 10.4231 3.56927 10.4237 3.33315C10.4237 3.09704 10.5105 2.89899 10.6842 2.73898C10.858 2.57898 11.0607 2.51315 11.2923 2.54148C13.1165 2.73593 14.6728 3.45121 15.9613 4.68733C17.2498 5.92345 17.9954 7.41651 18.1981 9.16652C18.2271 9.38875 18.1581 9.58319 17.9914 9.74986C17.8246 9.91653 17.6184 9.99986 17.3729 9.99986ZM13.7462 9.99986C13.558 9.99986 13.3915 9.93736 13.2468 9.81236C13.102 9.68736 12.9934 9.52069 12.921 9.31236C12.8052 8.90958 12.5843 8.5518 12.2582 8.23902C11.9322 7.92624 11.5596 7.71457 11.1403 7.60401C10.9231 7.53457 10.7494 7.4304 10.6191 7.29151C10.4888 7.15262 10.4237 6.98595 10.4237 6.79151C10.4237 6.51373 10.525 6.28789 10.7277 6.114C10.9304 5.94011 11.1548 5.88123 11.4009 5.93734C12.2116 6.11789 12.9103 6.48956 13.4969 7.05234C14.0836 7.61512 14.4707 8.28513 14.6583 9.06236C14.7162 9.29847 14.6511 9.51375 14.4629 9.70819C14.2747 9.90264 14.0358 9.99986 13.7462 9.99986ZM17.3294 17.4999C15.4618 17.4999 13.6411 17.1005 11.8674 16.3016C10.0936 15.5027 8.52275 14.4471 7.15491 13.1349C5.78707 11.8226 4.68678 10.3157 3.85403 8.61402C3.02128 6.91234 2.6052 5.16594 2.60577 3.37482C2.60577 3.12482 2.69264 2.91649 2.86637 2.74982C3.0401 2.58315 3.25726 2.49982 3.51786 2.49982H7.0359C7.23859 2.49982 7.41956 2.56232 7.57881 2.68732C7.73807 2.81232 7.83217 2.97204 7.86113 3.16649L8.42575 6.08317C8.4547 6.27762 8.45094 6.45484 8.41446 6.61484C8.37797 6.77484 8.29487 6.91706 8.16515 7.04151L6.08039 9.08319C6.68844 10.0832 7.44851 11.0207 8.3606 11.8957C9.27269 12.7707 10.2789 13.5277 11.3792 14.1666L13.4205 12.2082C13.5508 12.0832 13.7211 11.9896 13.9313 11.9274C14.1415 11.8651 14.3476 11.8477 14.5498 11.8749L17.5466 12.4582C17.7493 12.4999 17.9158 12.5938 18.0461 12.7399C18.1764 12.886 18.2415 13.056 18.2415 13.2499V16.6249C18.2415 16.8749 18.1547 17.0832 17.9809 17.2499C17.8072 17.4166 17.59 17.4999 17.3294 17.4999Z" fill="white"/>
</svg>
