<svg width="17" height="16" viewBox="0 0 17 16" fill="none" xmlns="http://www.w3.org/2000/svg">
<g clip-path="url(#clip0_132_307)">
<path d="M14.3767 4.79222H2.87525C2.08125 4.79222 1.43758 5.40523 1.43758 6.16143V13.0075C1.43758 13.7637 2.08125 14.3767 2.87525 14.3767H14.3767C15.1707 14.3767 15.8143 13.7637 15.8143 13.0075V6.16143C15.8143 5.40523 15.1707 4.79222 14.3767 4.79222Z" stroke="#0AA7BD" stroke-width="2" stroke-linecap="round" stroke-linejoin="round"/>
<path d="M11.5015 14.3768V3.42304C11.5015 3.0599 11.35 2.71164 11.0804 2.45486C10.8108 2.19808 10.4451 2.05382 10.0638 2.05382H7.18849C6.80719 2.05382 6.44151 2.19808 6.1719 2.45486C5.90228 2.71164 5.75081 3.0599 5.75081 3.42304V14.3768" stroke="#0AA7BD" stroke-width="2" stroke-linecap="round" stroke-linejoin="round"/>
</g>
<defs>
<clipPath id="clip0_132_307">
<rect width="16.3598" height="15.5807" fill="white" transform="scale(1.02691)"/>
</clipPath>
</defs>
</svg>
