<svg width="21" height="20" viewBox="0 0 21 20" fill="none" xmlns="http://www.w3.org/2000/svg">
<path opacity="0.3" d="M17.3725 6.66655L10.4233 10.8332L3.47404 6.66655V14.9999H17.3725V6.66655ZM17.3725 4.99988H3.47404L10.4233 9.15824L17.3725 4.99988Z" fill="white"/>
<path d="M3.47482 16.6667H17.3733C18.3288 16.6667 19.1106 15.9167 19.1106 15V4.99993C19.1106 4.08326 18.3288 3.33325 17.3733 3.33325H3.47482C2.5193 3.33325 1.73751 4.08326 1.73751 4.99993V15C1.73751 15.9167 2.5193 16.6667 3.47482 16.6667ZM17.3733 4.99993L10.424 9.15829L3.47482 4.99993H17.3733ZM3.47482 6.6666L10.424 10.8333L17.3733 6.6666V15H3.47482V6.6666Z" fill="white"/>
</svg>
